<mxfile host="app.diagrams.net" modified="2021-03-06T07:34:53.039Z" agent="5.0 (Windows NT 10.0; Win64; x64) AppleWebKit/537.36 (KHTML, like Gecko) Chrome/88.0.4324.190 Safari/537.36" etag="m4IEcEO-TxSej1LyAiYi" version="14.4.4" type="github">
  <diagram id="LlSCLEuqMTyLT04na_Gq" name="第 1 页">
    <mxGraphModel dx="1209" dy="599" grid="1" gridSize="10" guides="1" tooltips="1" connect="1" arrows="1" fold="1" page="1" pageScale="1" pageWidth="850" pageHeight="1100" math="0" shadow="0">
      <root>
        <mxCell id="0" />
        <mxCell id="1" parent="0" />
        <mxCell id="3KY8k_QG4k6a5dYg6XM1-30" style="edgeStyle=orthogonalEdgeStyle;rounded=0;orthogonalLoop=1;jettySize=auto;html=1;exitX=1;exitY=0.5;exitDx=0;exitDy=0;entryX=0.5;entryY=1;entryDx=0;entryDy=0;strokeWidth=2;" edge="1" parent="1" source="3KY8k_QG4k6a5dYg6XM1-2" target="3KY8k_QG4k6a5dYg6XM1-28">
          <mxGeometry relative="1" as="geometry" />
        </mxCell>
        <mxCell id="3KY8k_QG4k6a5dYg6XM1-2" value="" style="rounded=1;whiteSpace=wrap;html=1;gradientColor=#CCCCFF;gradientDirection=east;dashed=1;" vertex="1" parent="1">
          <mxGeometry x="150" y="270" width="240" height="63.75" as="geometry" />
        </mxCell>
        <mxCell id="3KY8k_QG4k6a5dYg6XM1-29" style="edgeStyle=orthogonalEdgeStyle;rounded=0;orthogonalLoop=1;jettySize=auto;html=1;exitX=1;exitY=0.5;exitDx=0;exitDy=0;entryX=0.5;entryY=0;entryDx=0;entryDy=0;strokeWidth=2;" edge="1" parent="1" source="3KY8k_QG4k6a5dYg6XM1-4" target="3KY8k_QG4k6a5dYg6XM1-28">
          <mxGeometry relative="1" as="geometry" />
        </mxCell>
        <mxCell id="3KY8k_QG4k6a5dYg6XM1-4" value="" style="rounded=1;whiteSpace=wrap;html=1;gradientColor=#CCCCFF;gradientDirection=east;dashed=1;" vertex="1" parent="1">
          <mxGeometry x="150" y="110" width="240" height="60" as="geometry" />
        </mxCell>
        <mxCell id="3KY8k_QG4k6a5dYg6XM1-5" value="数据源" style="shape=datastore;whiteSpace=wrap;html=1;" vertex="1" parent="1">
          <mxGeometry x="44" y="195" width="60" height="60" as="geometry" />
        </mxCell>
        <mxCell id="3KY8k_QG4k6a5dYg6XM1-6" value="第1层" style="rounded=1;whiteSpace=wrap;html=1;" vertex="1" parent="1">
          <mxGeometry x="160" y="130" width="40" height="35" as="geometry" />
        </mxCell>
        <mxCell id="3KY8k_QG4k6a5dYg6XM1-7" value="第2层" style="rounded=1;whiteSpace=wrap;html=1;" vertex="1" parent="1">
          <mxGeometry x="220" y="130" width="40" height="35" as="geometry" />
        </mxCell>
        <mxCell id="3KY8k_QG4k6a5dYg6XM1-8" value="第n层" style="rounded=1;whiteSpace=wrap;html=1;" vertex="1" parent="1">
          <mxGeometry x="340" y="130" width="40" height="35" as="geometry" />
        </mxCell>
        <mxCell id="3KY8k_QG4k6a5dYg6XM1-9" value="" style="endArrow=classic;html=1;exitX=1;exitY=0.5;exitDx=0;exitDy=0;entryX=0;entryY=0.5;entryDx=0;entryDy=0;strokeWidth=2;" edge="1" parent="1" source="3KY8k_QG4k6a5dYg6XM1-6" target="3KY8k_QG4k6a5dYg6XM1-7">
          <mxGeometry width="50" height="50" relative="1" as="geometry">
            <mxPoint x="386" y="245" as="sourcePoint" />
            <mxPoint x="436" y="195" as="targetPoint" />
          </mxGeometry>
        </mxCell>
        <mxCell id="3KY8k_QG4k6a5dYg6XM1-10" value="" style="edgeStyle=segmentEdgeStyle;endArrow=classic;html=1;strokeWidth=2;exitX=1;exitY=0.5;exitDx=0;exitDy=0;" edge="1" parent="1" source="3KY8k_QG4k6a5dYg6XM1-5">
          <mxGeometry width="50" height="50" relative="1" as="geometry">
            <mxPoint x="350" y="250" as="sourcePoint" />
            <mxPoint x="150" y="148" as="targetPoint" />
            <Array as="points">
              <mxPoint x="114" y="225" />
              <mxPoint x="114" y="148" />
            </Array>
          </mxGeometry>
        </mxCell>
        <mxCell id="3KY8k_QG4k6a5dYg6XM1-11" value="&lt;font size=&quot;1&quot;&gt;&lt;b style=&quot;font-size: 14px&quot;&gt;……&lt;/b&gt;&lt;/font&gt;" style="text;html=1;strokeColor=none;fillColor=none;align=center;verticalAlign=middle;whiteSpace=wrap;rounded=0;" vertex="1" parent="1">
          <mxGeometry x="280" y="130" width="40" height="20" as="geometry" />
        </mxCell>
        <mxCell id="3KY8k_QG4k6a5dYg6XM1-12" value="第1层" style="rounded=1;whiteSpace=wrap;html=1;" vertex="1" parent="1">
          <mxGeometry x="160" y="290" width="40" height="35" as="geometry" />
        </mxCell>
        <mxCell id="3KY8k_QG4k6a5dYg6XM1-13" value="第2层" style="rounded=1;whiteSpace=wrap;html=1;" vertex="1" parent="1">
          <mxGeometry x="220" y="290" width="40" height="35" as="geometry" />
        </mxCell>
        <mxCell id="3KY8k_QG4k6a5dYg6XM1-14" value="第n层" style="rounded=1;whiteSpace=wrap;html=1;" vertex="1" parent="1">
          <mxGeometry x="340" y="290" width="40" height="35" as="geometry" />
        </mxCell>
        <mxCell id="3KY8k_QG4k6a5dYg6XM1-15" value="" style="endArrow=classic;html=1;exitX=1;exitY=0.5;exitDx=0;exitDy=0;entryX=0;entryY=0.5;entryDx=0;entryDy=0;strokeWidth=2;" edge="1" parent="1" source="3KY8k_QG4k6a5dYg6XM1-12" target="3KY8k_QG4k6a5dYg6XM1-13">
          <mxGeometry width="50" height="50" relative="1" as="geometry">
            <mxPoint x="346" y="325" as="sourcePoint" />
            <mxPoint x="396" y="275" as="targetPoint" />
          </mxGeometry>
        </mxCell>
        <mxCell id="3KY8k_QG4k6a5dYg6XM1-16" value="" style="edgeStyle=segmentEdgeStyle;endArrow=classic;html=1;strokeWidth=2;entryX=0;entryY=0.5;entryDx=0;entryDy=0;exitX=1;exitY=0.5;exitDx=0;exitDy=0;" edge="1" parent="1" source="3KY8k_QG4k6a5dYg6XM1-5" target="3KY8k_QG4k6a5dYg6XM1-12">
          <mxGeometry width="50" height="50" relative="1" as="geometry">
            <mxPoint x="80" y="150" as="sourcePoint" />
            <mxPoint x="50" y="110" as="targetPoint" />
            <Array as="points">
              <mxPoint x="114" y="225" />
              <mxPoint x="114" y="308" />
              <mxPoint x="139" y="308" />
            </Array>
          </mxGeometry>
        </mxCell>
        <mxCell id="3KY8k_QG4k6a5dYg6XM1-17" value="&lt;font size=&quot;1&quot;&gt;&lt;b style=&quot;font-size: 14px&quot;&gt;……&lt;/b&gt;&lt;/font&gt;" style="text;html=1;strokeColor=none;fillColor=none;align=center;verticalAlign=middle;whiteSpace=wrap;rounded=0;" vertex="1" parent="1">
          <mxGeometry x="280" y="290" width="40" height="20" as="geometry" />
        </mxCell>
        <mxCell id="3KY8k_QG4k6a5dYg6XM1-18" value="" style="endArrow=classic;html=1;exitX=1;exitY=0.5;exitDx=0;exitDy=0;strokeWidth=2;" edge="1" parent="1" source="3KY8k_QG4k6a5dYg6XM1-13">
          <mxGeometry width="50" height="50" relative="1" as="geometry">
            <mxPoint x="186" y="237.5" as="sourcePoint" />
            <mxPoint x="280" y="308" as="targetPoint" />
          </mxGeometry>
        </mxCell>
        <mxCell id="3KY8k_QG4k6a5dYg6XM1-19" value="" style="endArrow=classic;html=1;strokeWidth=2;entryX=0;entryY=0.5;entryDx=0;entryDy=0;" edge="1" parent="1" target="3KY8k_QG4k6a5dYg6XM1-14">
          <mxGeometry width="50" height="50" relative="1" as="geometry">
            <mxPoint x="320" y="308" as="sourcePoint" />
            <mxPoint x="246" y="238" as="targetPoint" />
          </mxGeometry>
        </mxCell>
        <mxCell id="3KY8k_QG4k6a5dYg6XM1-20" value="教师模型" style="text;html=1;strokeColor=none;fillColor=none;align=center;verticalAlign=middle;whiteSpace=wrap;rounded=0;dashed=1;" vertex="1" parent="1">
          <mxGeometry x="220" y="110" width="110" height="20" as="geometry" />
        </mxCell>
        <mxCell id="3KY8k_QG4k6a5dYg6XM1-21" value="学生模型" style="text;html=1;strokeColor=none;fillColor=none;align=center;verticalAlign=middle;whiteSpace=wrap;rounded=0;dashed=1;" vertex="1" parent="1">
          <mxGeometry x="215" y="270" width="120" height="20" as="geometry" />
        </mxCell>
        <mxCell id="3KY8k_QG4k6a5dYg6XM1-22" value="" style="endArrow=classic;html=1;exitX=1;exitY=0.5;exitDx=0;exitDy=0;strokeWidth=2;" edge="1" parent="1" source="3KY8k_QG4k6a5dYg6XM1-7">
          <mxGeometry width="50" height="50" relative="1" as="geometry">
            <mxPoint x="226" y="157.5" as="sourcePoint" />
            <mxPoint x="286" y="148" as="targetPoint" />
          </mxGeometry>
        </mxCell>
        <mxCell id="3KY8k_QG4k6a5dYg6XM1-23" value="" style="endArrow=classic;html=1;strokeWidth=2;entryX=0;entryY=0.5;entryDx=0;entryDy=0;" edge="1" parent="1" target="3KY8k_QG4k6a5dYg6XM1-8">
          <mxGeometry width="50" height="50" relative="1" as="geometry">
            <mxPoint x="336" y="148" as="sourcePoint" />
            <mxPoint x="286" y="158" as="targetPoint" />
            <Array as="points">
              <mxPoint x="316" y="148" />
            </Array>
          </mxGeometry>
        </mxCell>
        <mxCell id="3KY8k_QG4k6a5dYg6XM1-28" value="蒸馏损失" style="shape=process;whiteSpace=wrap;html=1;backgroundOutline=1;fillColor=#FFFF99;" vertex="1" parent="1">
          <mxGeometry x="420" y="190" width="120" height="60" as="geometry" />
        </mxCell>
        <mxCell id="3KY8k_QG4k6a5dYg6XM1-31" value="实体关系" style="text;html=1;strokeColor=none;fillColor=none;align=center;verticalAlign=middle;whiteSpace=wrap;rounded=0;" vertex="1" parent="1">
          <mxGeometry x="410" y="120" width="60" height="20" as="geometry" />
        </mxCell>
        <mxCell id="3KY8k_QG4k6a5dYg6XM1-32" value="实体关系" style="text;html=1;strokeColor=none;fillColor=none;align=center;verticalAlign=middle;whiteSpace=wrap;rounded=0;" vertex="1" parent="1">
          <mxGeometry x="410" y="305" width="60" height="20" as="geometry" />
        </mxCell>
      </root>
    </mxGraphModel>
  </diagram>
</mxfile>
